<svg width="328" height="199" viewBox="0 0 328 199" fill="none" xmlns="http://www.w3.org/2000/svg">
<path d="M67.5335 132.138H67.6785C67.8138 132.138 67.9395 132.08 68.0555 131.964C68.1715 131.848 68.2682 131.713 68.3455 131.558C68.4422 131.404 68.5098 131.239 68.5485 131.065C68.5872 130.872 68.6065 130.698 68.6065 130.543V115.115C68.6065 114.98 68.5872 114.825 68.5485 114.651C68.5098 114.477 68.4422 114.313 68.3455 114.158C68.2682 113.984 68.1618 113.849 68.0265 113.752C67.9105 113.636 67.7752 113.578 67.6205 113.578H67.4755V113.288H72.2315C74.0295 113.288 75.4312 113.685 76.4365 114.477C77.4612 115.27 77.9735 116.324 77.9735 117.638C77.9735 118.199 77.8768 118.702 77.6835 119.146C77.4902 119.591 77.2388 119.987 76.9295 120.335C76.6395 120.683 76.3205 120.983 75.9725 121.234C75.6245 121.466 75.2958 121.66 74.9865 121.814C75.7985 121.969 76.4752 122.23 77.0165 122.597C77.5578 122.965 77.9928 123.39 78.3215 123.873C78.6695 124.337 78.9112 124.84 79.0465 125.381C79.1818 125.923 79.2495 126.454 79.2495 126.976C79.2495 127.982 79.0658 128.832 78.6985 129.528C78.3312 130.205 77.8382 130.766 77.2195 131.21C76.6202 131.636 75.9242 131.945 75.1315 132.138C74.3582 132.332 73.5558 132.428 72.7245 132.428H67.5335V132.138ZM77.2775 127.15C77.1228 125.662 76.6202 124.511 75.7695 123.699C74.9188 122.887 73.7202 122.481 72.1735 122.481H70.5495V131.471H72.2315C73.7975 131.471 75.0252 131.123 75.9145 130.427C76.8232 129.712 77.2775 128.726 77.2775 127.469V127.15ZM76.0885 117.899C76.0305 116.778 75.6342 115.889 74.8995 115.231C74.1842 114.574 73.2175 114.245 71.9995 114.245H70.5495V121.553H72.0575C72.8695 121.553 73.5268 121.447 74.0295 121.234C74.5515 121.022 74.9672 120.751 75.2765 120.422C75.5858 120.074 75.7985 119.697 75.9145 119.291C76.0305 118.885 76.0885 118.489 76.0885 118.102V117.899ZM83.462 132.138H83.607C83.7617 132.138 83.897 132.09 84.013 131.993C84.129 131.877 84.2257 131.742 84.303 131.587C84.3997 131.433 84.4673 131.268 84.506 131.094C84.564 130.92 84.593 130.756 84.593 130.601V115.086C84.593 114.951 84.564 114.796 84.506 114.622C84.4673 114.448 84.3997 114.284 84.303 114.129C84.2257 113.975 84.129 113.849 84.013 113.752C83.897 113.636 83.7617 113.578 83.607 113.578H83.462V113.288H94.627V115.985H94.337C94.2983 115.541 94.1243 115.154 93.815 114.825C93.5057 114.477 93.0223 114.303 92.365 114.303H86.536V121.64H91.35C91.7947 121.64 92.162 121.505 92.452 121.234C92.7613 120.964 92.916 120.645 92.916 120.277H93.206V123.902H92.916C92.916 123.554 92.771 123.255 92.481 123.003C92.191 122.752 91.814 122.626 91.35 122.626H86.536V131.413H92.887C93.2543 131.413 93.5733 131.326 93.844 131.152C94.1147 130.978 94.337 130.775 94.511 130.543C94.7043 130.292 94.8397 130.031 94.917 129.76C95.0137 129.47 95.062 129.229 95.062 129.035H95.352V132.428H83.462V132.138ZM108.522 114.042C107.092 114.042 105.845 114.303 104.781 114.825C103.737 115.328 102.867 115.995 102.171 116.826C101.475 117.638 100.953 118.557 100.605 119.581C100.277 120.606 100.112 121.621 100.112 122.626C100.112 123.767 100.335 124.888 100.779 125.99C101.224 127.073 101.833 128.04 102.606 128.89C103.399 129.722 104.317 130.398 105.361 130.92C106.405 131.423 107.536 131.674 108.754 131.674C109.102 131.674 109.508 131.636 109.972 131.558C110.456 131.481 110.929 131.336 111.393 131.123C111.857 130.891 112.283 130.572 112.669 130.166C113.075 129.76 113.385 129.229 113.597 128.571H113.887V131.79C113.597 131.79 113.288 131.829 112.959 131.906C112.65 131.984 112.302 132.071 111.915 132.167C111.413 132.303 110.852 132.428 110.233 132.544C109.634 132.66 108.996 132.718 108.319 132.718C106.637 132.718 105.158 132.428 103.882 131.848C102.606 131.268 101.543 130.514 100.692 129.586C99.8416 128.658 99.2036 127.614 98.7783 126.454C98.353 125.275 98.1403 124.086 98.1403 122.887C98.1403 121.689 98.353 120.5 98.7783 119.32C99.2036 118.141 99.8513 117.087 100.721 116.159C101.591 115.212 102.684 114.448 103.998 113.868C105.313 113.288 106.86 112.998 108.638 112.998C109.276 112.998 109.847 113.056 110.349 113.172C110.871 113.288 111.335 113.404 111.741 113.52C112.031 113.617 112.292 113.694 112.524 113.752C112.776 113.791 113.017 113.81 113.249 113.81V117.029H112.959C112.843 116.43 112.631 115.937 112.321 115.55C112.012 115.144 111.645 114.835 111.219 114.622C110.813 114.41 110.369 114.265 109.885 114.187C109.421 114.091 108.967 114.042 108.522 114.042ZM129.694 132.138H129.839C129.974 132.138 130.1 132.09 130.216 131.993C130.332 131.877 130.428 131.742 130.506 131.587C130.602 131.413 130.67 131.239 130.709 131.065C130.747 130.872 130.767 130.698 130.767 130.543V122.655H121.487V130.543C121.487 130.698 121.506 130.872 121.545 131.065C121.583 131.239 121.641 131.404 121.719 131.558C121.796 131.713 121.883 131.848 121.98 131.964C122.096 132.08 122.231 132.138 122.386 132.138H122.531V132.428H118.471V132.138H118.616C118.751 132.138 118.877 132.09 118.993 131.993C119.109 131.877 119.205 131.742 119.283 131.587C119.379 131.413 119.447 131.239 119.486 131.065C119.524 130.872 119.544 130.698 119.544 130.543V115.086C119.544 114.951 119.524 114.796 119.486 114.622C119.447 114.448 119.389 114.284 119.312 114.129C119.234 113.975 119.138 113.849 119.022 113.752C118.906 113.636 118.77 113.578 118.616 113.578H118.471V113.288H122.531V113.578H122.386C122.231 113.578 122.096 113.636 121.98 113.752C121.864 113.849 121.767 113.975 121.69 114.129C121.632 114.284 121.583 114.448 121.545 114.622C121.506 114.796 121.487 114.951 121.487 115.086V121.64H130.767V115.086C130.767 114.951 130.747 114.796 130.709 114.622C130.67 114.448 130.612 114.284 130.535 114.129C130.457 113.975 130.361 113.849 130.245 113.752C130.129 113.636 129.993 113.578 129.839 113.578H129.694V113.288H133.754V113.578H133.609C133.454 113.578 133.319 113.636 133.203 113.752C133.087 113.849 132.99 113.975 132.913 114.129C132.855 114.284 132.806 114.448 132.768 114.622C132.729 114.796 132.71 114.951 132.71 115.086V130.543C132.71 130.698 132.729 130.872 132.768 131.065C132.826 131.239 132.893 131.404 132.971 131.558C133.048 131.713 133.135 131.848 133.232 131.964C133.348 132.08 133.473 132.138 133.609 132.138H133.754V132.428H129.694V132.138ZM148.981 132.138H149.126C149.59 132.138 149.822 131.926 149.822 131.5C149.822 131.346 149.793 131.181 149.735 131.007L147.125 123.96H142.05L139.527 130.891C139.469 131.046 139.44 131.191 139.44 131.326C139.44 131.578 139.507 131.781 139.643 131.935C139.778 132.071 139.923 132.138 140.078 132.138H140.223V132.428H137.004V132.138H137.149C137.4 132.138 137.642 131.993 137.874 131.703C138.125 131.394 138.328 131.036 138.483 130.63L145.124 112.94L151.62 130.456C151.755 130.843 151.939 131.22 152.171 131.587C152.422 131.955 152.741 132.138 153.128 132.138H153.273V132.428H148.981V132.138ZM142.34 122.974H146.806L144.573 116.913L142.34 122.974ZM166.021 132.138H166.166C166.302 132.138 166.427 132.08 166.543 131.964C166.659 131.848 166.756 131.713 166.833 131.558C166.93 131.404 166.998 131.239 167.036 131.065C167.075 130.872 167.094 130.698 167.094 130.543V115.115C167.094 114.98 167.075 114.825 167.036 114.651C166.998 114.477 166.93 114.313 166.833 114.158C166.756 113.984 166.65 113.849 166.514 113.752C166.398 113.636 166.263 113.578 166.108 113.578H165.963V113.288H170.719C172.517 113.288 173.919 113.685 174.924 114.477C175.949 115.27 176.461 116.324 176.461 117.638C176.461 118.199 176.365 118.702 176.171 119.146C175.978 119.591 175.727 119.987 175.417 120.335C175.127 120.683 174.808 120.983 174.46 121.234C174.112 121.466 173.784 121.66 173.474 121.814C174.286 121.969 174.963 122.23 175.504 122.597C176.046 122.965 176.481 123.39 176.809 123.873C177.157 124.337 177.399 124.84 177.534 125.381C177.67 125.923 177.737 126.454 177.737 126.976C177.737 127.982 177.554 128.832 177.186 129.528C176.819 130.205 176.326 130.766 175.707 131.21C175.108 131.636 174.412 131.945 173.619 132.138C172.846 132.332 172.044 132.428 171.212 132.428H166.021V132.138ZM175.765 127.15C175.611 125.662 175.108 124.511 174.257 123.699C173.407 122.887 172.208 122.481 170.661 122.481H169.037V131.471H170.719C172.285 131.471 173.513 131.123 174.402 130.427C175.311 129.712 175.765 128.726 175.765 127.469V127.15ZM174.576 117.899C174.518 116.778 174.122 115.889 173.387 115.231C172.672 114.574 171.705 114.245 170.487 114.245H169.037V121.553H170.545C171.357 121.553 172.015 121.447 172.517 121.234C173.039 121.022 173.455 120.751 173.764 120.422C174.074 120.074 174.286 119.697 174.402 119.291C174.518 118.885 174.576 118.489 174.576 118.102V117.899ZM191.138 114.042C189.708 114.042 188.461 114.303 187.397 114.825C186.353 115.328 185.483 115.995 184.787 116.826C184.091 117.638 183.569 118.557 183.221 119.581C182.893 120.606 182.728 121.621 182.728 122.626C182.728 123.767 182.951 124.888 183.395 125.99C183.84 127.073 184.449 128.04 185.222 128.89C186.015 129.722 186.933 130.398 187.977 130.92C189.021 131.423 190.152 131.674 191.37 131.674C191.718 131.674 192.124 131.636 192.588 131.558C193.072 131.481 193.545 131.336 194.009 131.123C194.473 130.891 194.899 130.572 195.285 130.166C195.691 129.76 196.001 129.229 196.213 128.571H196.503V131.79C196.213 131.79 195.904 131.829 195.575 131.906C195.266 131.984 194.918 132.071 194.531 132.167C194.029 132.303 193.468 132.428 192.849 132.544C192.25 132.66 191.612 132.718 190.935 132.718C189.253 132.718 187.774 132.428 186.498 131.848C185.222 131.268 184.159 130.514 183.308 129.586C182.458 128.658 181.82 127.614 181.394 126.454C180.969 125.275 180.756 124.086 180.756 122.887C180.756 121.689 180.969 120.5 181.394 119.32C181.82 118.141 182.467 117.087 183.337 116.159C184.207 115.212 185.3 114.448 186.614 113.868C187.929 113.288 189.476 112.998 191.254 112.998C191.892 112.998 192.463 113.056 192.965 113.172C193.487 113.288 193.951 113.404 194.357 113.52C194.647 113.617 194.908 113.694 195.14 113.752C195.392 113.791 195.633 113.81 195.865 113.81V117.029H195.575C195.459 116.43 195.247 115.937 194.937 115.55C194.628 115.144 194.261 114.835 193.835 114.622C193.429 114.41 192.985 114.265 192.501 114.187C192.037 114.091 191.583 114.042 191.138 114.042ZM200.739 132.138H200.884C201.038 132.138 201.174 132.09 201.29 131.993C201.406 131.877 201.502 131.742 201.58 131.587C201.676 131.433 201.744 131.268 201.783 131.094C201.841 130.92 201.87 130.756 201.87 130.601V115.086C201.87 114.951 201.841 114.796 201.783 114.622C201.744 114.448 201.676 114.284 201.58 114.129C201.502 113.975 201.406 113.849 201.29 113.752C201.174 113.636 201.038 113.578 200.884 113.578H200.739V113.288H211.904V115.985H211.614C211.575 115.541 211.401 115.154 211.092 114.825C210.782 114.477 210.299 114.303 209.642 114.303H203.813V121.64H208.627C209.071 121.64 209.439 121.505 209.729 121.234C210.038 120.964 210.193 120.645 210.193 120.277H210.483V123.902H210.193C210.193 123.554 210.048 123.255 209.758 123.003C209.468 122.752 209.091 122.626 208.627 122.626H203.813V131.413H210.164C210.531 131.413 210.85 131.326 211.121 131.152C211.391 130.978 211.614 130.775 211.788 130.543C211.981 130.292 212.116 130.031 212.194 129.76C212.29 129.47 212.339 129.229 212.339 129.035H212.629V132.428H200.739V132.138ZM220.585 132.138H220.73V132.428H216.554V132.138H216.699C216.854 132.138 216.989 132.09 217.105 131.993C217.221 131.877 217.318 131.742 217.395 131.587C217.492 131.433 217.559 131.268 217.598 131.094C217.637 130.92 217.656 130.756 217.656 130.601V115.086C217.656 114.951 217.637 114.796 217.598 114.622C217.559 114.448 217.492 114.284 217.395 114.129C217.318 113.975 217.221 113.849 217.105 113.752C216.989 113.636 216.854 113.578 216.699 113.578H216.554V113.288H227.719V116.362H227.429C227.429 115.666 227.274 115.154 226.965 114.825C226.675 114.477 226.211 114.303 225.573 114.303H219.628V130.601C219.628 130.756 219.647 130.92 219.686 131.094C219.725 131.268 219.783 131.433 219.86 131.587C219.957 131.742 220.063 131.877 220.179 131.993C220.295 132.09 220.43 132.138 220.585 132.138ZM244.03 131.413V135.038H243.74C243.721 134.787 243.653 134.507 243.537 134.197C243.421 133.888 243.257 133.598 243.044 133.327C242.851 133.076 242.619 132.863 242.348 132.689C242.078 132.515 241.778 132.428 241.449 132.428H228.08C227.752 132.428 227.452 132.515 227.181 132.689C226.911 132.883 226.669 133.105 226.456 133.356C226.263 133.627 226.099 133.917 225.963 134.226C225.847 134.536 225.78 134.806 225.76 135.038H225.47V131.413H226.746C227.365 131.413 227.8 131.056 228.051 130.34L234.721 112.853L241.449 130.253C241.585 130.543 241.768 130.814 242 131.065C242.232 131.297 242.503 131.413 242.812 131.413H244.03ZM228.689 131.413H239.854L234.257 117L228.689 131.413ZM259.206 132.138H259.351C259.815 132.138 260.047 131.926 260.047 131.5C260.047 131.346 260.018 131.181 259.96 131.007L257.35 123.96H252.275L249.752 130.891C249.694 131.046 249.665 131.191 249.665 131.326C249.665 131.578 249.732 131.781 249.868 131.935C250.003 132.071 250.148 132.138 250.303 132.138H250.448V132.428H247.229V132.138H247.374C247.625 132.138 247.867 131.993 248.099 131.703C248.35 131.394 248.553 131.036 248.708 130.63L255.349 112.94L261.845 130.456C261.98 130.843 262.164 131.22 262.396 131.587C262.647 131.955 262.966 132.138 263.353 132.138H263.498V132.428H259.206V132.138ZM252.565 122.974H257.031L254.798 116.913L252.565 122.974Z" fill="white"/>
<path d="M171.628 84.2875C171.628 87.809 169.917 91.0328 168.161 93.4062C167.287 94.5874 166.412 95.5442 165.757 96.2052C165.446 96.5184 165.185 96.7645 164.997 96.936C164.81 96.7645 164.549 96.5184 164.238 96.2052C163.583 95.5442 162.708 94.5874 161.834 93.4062C160.078 91.0328 158.367 87.809 158.367 84.2875C158.367 80.766 160.078 77.5423 161.834 75.1688C162.708 73.9876 163.583 73.0308 164.238 72.3698C164.549 72.0567 164.81 71.8105 164.997 71.639C165.185 71.8105 165.446 72.0567 165.757 72.3698C166.412 73.0308 167.287 73.9876 168.161 75.1688C169.917 77.5423 171.628 80.766 171.628 84.2875Z" stroke="white"/>
<path d="M161.55 82.9527C163.765 85.481 164.619 89.1481 164.905 92.2534C165.047 93.7969 165.047 95.1794 165.011 96.1757C164.993 96.6735 164.966 97.0737 164.944 97.3481C164.944 97.3492 164.944 97.3504 164.943 97.3516C164.942 97.3517 164.941 97.3518 164.94 97.3519C164.7 97.3772 164.349 97.4079 163.913 97.4284C163.04 97.4695 161.829 97.4699 160.476 97.3077C157.755 96.9815 154.542 96.0065 152.327 93.4782C150.112 90.95 149.257 87.2828 148.971 84.1775C148.829 82.634 148.83 81.2516 148.866 80.2552C148.884 79.7574 148.91 79.3572 148.933 79.0829C148.933 79.0817 148.933 79.0805 148.933 79.0793C148.934 79.0792 148.935 79.0791 148.936 79.079C149.176 79.0537 149.527 79.023 149.963 79.0025C150.836 78.9614 152.048 78.961 153.4 79.1232C156.121 79.4494 159.334 80.4244 161.55 82.9527Z" stroke="white"/>
<path d="M168.768 82.9527C166.553 85.481 165.698 89.1481 165.412 92.2534C165.27 93.7969 165.271 95.1794 165.307 96.1757C165.325 96.6735 165.351 97.0737 165.374 97.3481C165.374 97.3492 165.374 97.3504 165.374 97.3516C165.375 97.3517 165.376 97.3518 165.377 97.3519C165.617 97.3772 165.968 97.4079 166.404 97.4284C167.277 97.4695 168.489 97.4699 169.841 97.3077C172.562 96.9815 175.775 96.0065 177.991 93.4782C180.206 90.95 181.06 87.2828 181.346 84.1775C181.488 82.634 181.488 81.2516 181.452 80.2552C181.434 79.7574 181.407 79.3572 181.385 79.0829C181.385 79.0817 181.385 79.0805 181.385 79.0793C181.384 79.0792 181.382 79.0791 181.381 79.079C181.141 79.0537 180.79 79.023 180.354 79.0025C179.481 78.9614 178.27 78.961 176.917 79.1232C174.196 79.4494 170.983 80.4244 168.768 82.9527Z" stroke="white"/>
<path d="M132.455 87.8979H65.8735" stroke="white"/>
<path d="M264.139 87.898L196.078 87.8979" stroke="white"/>
<path d="M36.4418 39.3465C36.6506 39.6787 37.0913 39.7787 37.4231 39.5697C37.755 39.3608 37.8549 38.9196 37.6462 38.5873C37.3803 38.1658 37.1876 37.6228 37.077 37.003C37.6943 37.1137 38.2385 37.3084 38.6596 37.5728C38.9915 37.7817 39.4322 37.6817 39.641 37.3495C39.8497 37.0173 39.7498 36.5761 39.4179 36.3671C38.7595 35.9527 37.912 35.6705 36.9699 35.5436C36.9931 34.513 37.2144 33.4073 37.6694 32.3696C38.21 31.1371 39.0807 30.0011 40.3386 29.2098C41.3307 28.5846 42.5707 28.1684 44.0909 28.0773C45.4987 28.1541 46.8405 28.3613 48.0145 28.7418C49.9933 29.3848 51.4796 30.5298 51.9221 32.4035C51.9845 32.6714 52.0291 32.9536 52.0505 33.2502C52.1273 34.3112 51.699 35.4222 50.7837 36.301C49.9326 37.1191 48.6658 37.7407 46.9904 37.9586C46.6014 38.0086 46.3248 38.3641 46.3748 38.7534C46.3908 38.8767 46.4372 38.9874 46.505 39.0821C47.9075 41.1559 48.3036 43.1082 47.9806 44.6622C47.8058 45.5071 47.4132 46.2341 46.8565 46.7931C46.2998 47.3504 45.5737 47.7434 44.7279 47.9184C43.172 48.2418 41.2147 47.8434 39.136 46.427C38.8113 46.2073 38.3688 46.2912 38.1493 46.6163C38.0851 46.7128 38.0458 46.8181 38.0316 46.9253C37.8139 48.6008 37.1948 49.8708 36.3758 50.7228C35.4979 51.6391 34.3881 52.0678 33.3283 51.991C33.0321 51.9696 32.7501 51.9267 32.4825 51.8624C30.6108 51.4194 29.4671 49.9297 28.8248 47.9506C28.4447 46.7753 28.2377 45.4321 28.161 44.0227C28.252 42.5009 28.6678 41.2595 29.2922 40.2664C30.0845 39.0071 31.2175 38.1354 32.4486 37.5942C33.4853 37.1387 34.5879 36.9172 35.6192 36.894C35.7459 37.8371 36.0278 38.6856 36.4418 39.3447V39.3465ZM36.3633 31.8015C35.8387 33.0001 35.5782 34.2772 35.5461 35.4722C34.3524 35.5043 33.0785 35.7651 31.8794 36.2903C30.5305 36.8833 29.2762 37.8121 28.3395 39.1321C28.5054 37.6871 28.757 36.2974 29.046 35.0721C29.5563 32.9144 29.7954 31.1657 29.84 29.7617C31.2424 29.717 32.9875 29.4777 35.1446 28.9668C36.3704 28.6775 37.7568 28.4256 39.2003 28.2595C37.8817 29.1973 36.9539 30.453 36.3615 31.8033L36.3633 31.8015ZM44.1391 26.6519L44.1141 26.6501C42.9401 26.5876 41.7339 26.6108 40.542 26.6966C38.5062 26.843 36.5149 27.1735 34.8235 27.5736C32.7145 28.0737 31.0765 28.3238 29.8204 28.3988C29.6455 25.9553 28.7302 24.9175 27.756 24.6871C26.937 24.4924 26.0913 24.8336 25.506 25.4194C24.9208 26.0053 24.5818 26.852 24.7745 27.6718C25.0047 28.6471 26.0431 29.5634 28.4822 29.7385C28.4073 30.996 28.1575 32.6357 27.6579 34.747C27.2582 36.4403 26.9281 38.4355 26.7818 40.4718C26.6961 41.665 26.673 42.8724 26.7354 44.0477L26.7372 44.0728C26.8193 45.6071 27.0476 47.0825 27.4687 48.3864C28.2592 50.8282 29.7205 52.6769 32.1578 53.2538C32.495 53.3342 32.8501 53.3878 33.2265 53.4146C34.6968 53.52 36.217 52.9448 37.3999 51.7106C38.2261 50.8496 38.888 49.6654 39.2449 48.1703C41.3449 49.3563 43.3469 49.66 45.0152 49.3117C46.141 49.0777 47.1117 48.5508 47.8629 47.8006C48.6123 47.0504 49.1386 46.0769 49.3723 44.9498C49.7185 43.2797 49.4152 41.2738 48.2322 39.1732C49.7256 38.816 50.9086 38.1533 51.7686 37.3263C53.0015 36.142 53.5761 34.6202 53.4708 33.1483C53.444 32.7715 53.3887 32.416 53.3102 32.0784C52.7339 29.6402 50.8872 28.1773 48.4481 27.3843C47.1456 26.9609 45.6718 26.7341 44.1391 26.6519ZM82.3509 1.50577C82.7434 1.50577 83.061 1.18783 83.061 0.794861C83.061 0.401894 82.7434 0.0839539 82.3509 0.0839539L10.9018 0.0928802C10.404 0.0553741 9.90623 0.030365 9.4102 0.0196457C9.29066 0.0178604 9.17825 0.0446548 9.08012 0.0946655H4.61946C3.65596 0.0357208 2.64071 0.00357056 1.56837 0C1.4399 0 1.31857 0.0339355 1.21508 0.0946655H0.710137C0.317599 0.0946655 0 0.412613 0 0.80558L0.199837 82.3279C0.199837 82.7208 0.517436 83.0388 0.909974 83.0388C1.30251 83.0388 1.62011 82.7208 1.62011 82.3279L1.60584 76.7442C1.63617 76.8138 1.66829 76.8853 1.70397 76.955C2.82806 79.2324 4.68369 80.5738 6.65709 80.9721C7.78652 81.2008 8.94808 81.1204 10.0329 80.7328C10.3933 80.6042 10.7448 80.4416 11.0838 80.2434L11.1267 93.2666C11.1267 93.6595 11.4443 93.9775 11.8368 93.9775C12.2293 93.9775 12.5469 93.6595 12.5469 93.2666L12.5005 79.1377C12.6504 78.9859 12.795 78.8233 12.9359 78.6536C14.54 76.6942 15.4142 73.554 14.6649 69.2528C14.5988 68.8652 14.2313 68.6027 13.8423 68.6688C13.4551 68.7349 13.1928 69.1028 13.2589 69.4922C13.9297 73.3397 13.2 76.0833 11.8368 77.7498C11.1909 78.5375 10.4005 79.0841 9.55116 79.3878C8.70542 79.6896 7.80437 79.7521 6.93365 79.5771C5.37242 79.2609 3.89326 78.1767 2.97794 76.3244C2.31954 74.9901 2.812 73.5308 3.74874 72.5109C4.18231 72.0375 4.70867 71.6607 5.25822 71.432C5.77388 71.2177 6.30559 71.1373 6.79091 71.2409C7.61524 71.4177 8.35214 72.1644 8.70542 73.7451C8.78928 74.1292 9.16933 74.3721 9.55295 74.2864C9.93656 74.2024 10.1792 73.822 10.0936 73.4379C9.59577 71.2105 8.42886 70.1317 7.08531 69.8441C6.30559 69.678 5.48483 69.7923 4.71224 70.1138C3.97355 70.421 3.27234 70.9212 2.70137 71.5445C2.23568 72.0518 1.85207 72.6448 1.59692 73.2843L1.46131 18.0138C2.47834 21.3201 3.97534 24.437 5.76317 27.0663C7.08352 29.1883 8.36284 31.6694 9.3085 34.1111C10.1899 36.3903 10.7805 38.6266 10.834 40.4825C10.8787 41.999 10.6521 43.6655 9.95619 45.5357C9.36381 47.1254 8.436 48.8651 7.04784 50.7853C5.93267 52.1893 5.00129 53.6164 4.37501 54.7828C4.24298 54.9882 4.21978 55.2544 4.33576 55.4884C5.09407 57.0102 6.36625 59.0072 7.90964 60.8416C9.32099 62.5189 10.9625 64.0639 12.654 64.9999C14.4615 66.0002 16.3349 66.3235 18.0871 65.45C18.4475 65.2696 18.8061 65.0338 19.1594 64.7355C20.1051 63.9371 20.6814 62.7064 20.6725 61.2792C20.6653 60.0611 20.23 58.7018 19.229 57.3657C18.9935 57.0513 18.5474 56.987 18.2334 57.2228C17.9194 57.4586 17.8551 57.9051 18.0906 58.2195C18.8953 59.293 19.2433 60.354 19.2486 61.2846C19.2558 62.2759 18.8722 63.1172 18.2423 63.6477C17.9889 63.8621 17.7231 64.0354 17.4483 64.1729C16.1779 64.807 14.7523 64.5337 13.3374 63.7513C11.8065 62.9047 10.3006 61.4811 8.99447 59.9271C7.64378 58.3213 6.51078 56.5797 5.77744 55.1794C6.18604 54.4506 6.71061 53.6272 7.32262 52.7787C7.60453 52.4197 7.87395 52.0642 8.12732 51.7159C8.44313 51.3176 8.77679 50.9193 9.12294 50.5299C10.4754 49.008 12.0206 47.6237 13.5693 46.8217C15.0057 46.0769 16.4402 45.8429 17.691 46.5109C17.9497 46.6485 18.2084 46.8307 18.4671 47.0611C19.0827 47.6094 19.4431 48.4597 19.411 49.4492C19.3807 50.3798 19.0024 51.4319 18.1692 52.484C17.9265 52.793 17.9782 53.2395 18.2869 53.4825C18.5956 53.7254 19.0417 53.6736 19.2843 53.3646C20.321 52.0553 20.792 50.7085 20.8331 49.4921C20.8812 48.0631 20.3388 46.8164 19.4164 45.9929C19.0809 45.6946 18.7294 45.4499 18.3619 45.2534C16.6329 44.33 14.7523 44.6033 12.9181 45.5535C12.2615 45.8929 11.612 46.3216 10.9786 46.811C11.091 46.5484 11.1927 46.2894 11.289 46.0322C12.0563 43.9709 12.3061 42.1258 12.2561 40.4432C12.1972 38.4105 11.5727 36.0134 10.636 33.5967C10.3969 32.9804 10.1382 32.3624 9.86341 31.748C10.6717 32.4428 11.5067 33.0358 12.356 33.5127C13.9672 34.4183 15.6373 34.906 17.302 34.8685C19.1808 34.8256 21.0258 34.1182 22.7369 32.5946C23.4755 31.9373 23.8342 31.23 23.8485 30.4583C23.8627 29.7224 23.5487 28.9811 22.9421 28.2149C20.7474 25.4391 17.6785 24.162 14.4971 22.8402C8.20939 20.227 1.46131 17.4208 1.42206 1.56828V1.5147H4.53381C17.773 2.34885 20.3799 8.63093 22.8189 14.5093C24.1393 17.6941 25.415 20.7664 28.1878 22.9634C28.9532 23.5707 29.6937 23.8851 30.4288 23.8708C31.1996 23.8565 31.9062 23.4975 32.5628 22.758C34.0848 21.045 34.7913 19.1999 34.8342 17.3172C34.8716 15.6507 34.3845 13.9788 33.4799 12.3659C32.9964 11.5031 32.3933 10.6565 31.6885 9.83662C32.3166 10.1188 32.9482 10.385 33.5763 10.6279C35.9904 11.5639 38.3849 12.1908 40.4153 12.2498C42.0961 12.298 43.9393 12.0479 45.9983 11.2817C46.2659 11.1816 46.5354 11.0745 46.8101 10.9566C46.348 11.5639 45.943 12.1873 45.6183 12.8142C44.669 14.6504 44.396 16.5331 45.3185 18.2639C45.5148 18.6301 45.7592 18.9838 46.0572 19.3196C46.8779 20.243 48.1251 20.786 49.5526 20.7378C50.7676 20.6967 52.113 20.2252 53.4208 19.1874C53.7295 18.9445 53.7813 18.4961 53.5386 18.1889C53.2959 17.8799 52.8481 17.8281 52.5412 18.071C51.4903 18.9052 50.4393 19.2821 49.5097 19.3142C48.523 19.3481 47.6719 18.9855 47.1242 18.3693C46.8958 18.1121 46.7138 17.8531 46.5746 17.5923C45.9073 16.3402 46.141 14.9041 46.8851 13.4662C47.6862 11.9158 49.069 10.3689 50.5892 9.01496C50.8711 8.76311 51.1584 8.5184 51.4474 8.28262C51.881 7.97182 52.3217 7.63959 52.7732 7.28413C52.8106 7.25377 52.8463 7.21983 52.8766 7.1841C53.7099 6.58394 54.5182 6.06952 55.2337 5.66583C56.6325 6.39996 58.3722 7.53599 59.9762 8.88636C61.5285 10.1956 62.9506 11.7032 63.7963 13.234C64.5778 14.6504 64.8508 16.0776 64.2174 17.3494C64.08 17.6245 63.907 17.8906 63.6928 18.1442C63.1629 18.7748 62.3225 19.157 61.3323 19.1517C60.4027 19.1463 59.3428 18.7962 58.2705 17.9924C57.9564 17.7566 57.5104 17.8209 57.2748 18.1353C57.0393 18.4497 57.1036 18.8962 57.4176 19.132C58.754 20.1341 60.1118 20.5681 61.3269 20.577C62.7525 20.586 63.9837 20.009 64.7795 19.0623C65.0774 18.7087 65.313 18.3497 65.4932 17.9888C66.3675 16.2348 66.0427 14.3611 65.0435 12.5499C64.1086 10.8548 62.5652 9.21145 60.8898 7.80035C59.0573 6.25528 57.0625 4.98172 55.5423 4.22258C55.3086 4.10648 55.0427 4.1297 54.8375 4.26188C53.5868 4.93528 52.0345 5.96056 50.5339 7.18768C48.6997 8.49161 47.0332 9.37578 45.5023 9.94736C43.6342 10.644 41.9694 10.8708 40.4546 10.8262C38.599 10.7726 36.3669 10.1831 34.0901 9.29897C31.412 8.26118 28.691 6.81972 26.4446 5.36397C26.4196 5.34789 26.3928 5.3336 26.3678 5.31931C23.9359 3.75639 21.1275 2.44174 18.1656 1.51112L73.2636 1.50577C72.6463 1.76119 72.0753 2.1363 71.5829 2.5882C70.9601 3.15979 70.4606 3.86177 70.1537 4.60126C69.8325 5.37468 69.7183 6.19812 69.8842 6.97691C70.1697 8.32191 71.2492 9.4883 73.4742 9.98844C73.8578 10.0724 74.2378 9.83126 74.3217 9.44723C74.4056 9.06319 74.1647 8.68273 73.7811 8.59878C72.202 8.24511 71.4544 7.50741 71.2795 6.68218C71.176 6.19812 71.2563 5.66583 71.4704 5.14783C71.6988 4.59769 72.0753 4.07254 72.5481 3.63671C73.5687 2.69895 75.0265 2.20596 76.3575 2.86507C78.2078 3.7796 79.2909 5.26037 79.6067 6.82508C79.7833 7.69675 79.7191 8.59878 79.4176 9.44543C79.1142 10.2957 78.57 11.087 77.7814 11.7336C76.1185 13.0982 73.3778 13.8288 69.5327 13.1572C69.1456 13.0911 68.7762 13.3519 68.7102 13.7413C68.6442 14.1289 68.9047 14.4986 69.2936 14.5647C73.5919 15.3149 76.7269 14.4414 78.6842 12.8339C78.8537 12.6945 79.0161 12.5481 79.1678 12.398L93.2813 12.4445C93.6738 12.4445 93.9914 12.1265 93.9914 11.7336C93.9914 11.3406 93.6738 11.0227 93.2813 11.0227L80.2722 10.9798C80.4685 10.6404 80.6309 10.2885 80.7611 9.92771C81.1483 8.84171 81.2286 7.67889 81.0002 6.54822C80.6005 4.57268 79.2623 2.71503 76.9874 1.58972C76.9285 1.56114 76.8696 1.53256 76.809 1.50577H82.3545H82.3509ZM86.7241 6.70004C86.3316 6.70004 86.014 7.01799 86.014 7.41095C86.014 7.80392 86.3316 8.12186 86.7241 8.12186H100.29C100.682 8.12186 101 7.80392 101 7.41095C101 7.01799 100.682 6.70004 100.29 6.70004H86.7241ZM27.4313 26.0786C27.9523 26.2018 28.4108 26.8573 28.4947 28.4131C26.9406 28.3292 26.2858 27.8701 26.1627 27.3485C26.0913 27.0431 26.2519 26.6948 26.5142 26.4304C26.7782 26.1661 27.1262 26.0053 27.4313 26.0786ZM8.23081 86.704C8.23081 86.3093 7.91142 85.9896 7.5171 85.9896C7.12278 85.9896 6.8034 86.3093 6.8034 86.704V100.285C6.8034 100.679 7.12278 100.999 7.5171 100.999C7.91142 100.999 8.23081 100.679 8.23081 100.285V86.704ZM6.94257 26.2679C6.81767 26.0678 6.69277 25.8714 6.56787 25.6784C6.54111 25.6391 6.51256 25.6016 6.48044 25.5695C4.27509 22.1239 2.59253 17.8942 1.85028 13.5608C4.42854 20.1984 9.30672 22.2275 13.9494 24.1584C16.9594 25.4105 19.866 26.618 21.8251 29.0972C22.2248 29.6027 22.4318 30.0475 22.4246 30.4369C22.4175 30.7906 22.2123 31.1514 21.7876 31.53C20.3442 32.8161 18.8151 33.4109 17.2735 33.4466C15.8764 33.4788 14.449 33.0537 13.0519 32.2695C11.6191 31.464 10.2203 30.2797 8.91775 28.815C8.22724 28.038 7.56706 27.186 6.94257 26.2697V26.2679ZM13.5479 1.8505C19.3628 2.84899 24.9886 5.54616 28.7837 8.92565C30.2468 10.2296 31.4298 11.6282 32.2345 13.0643C33.0196 14.4629 33.4424 15.8918 33.4103 17.2904C33.3746 18.8319 32.7805 20.3645 31.4958 21.8095C31.1175 22.2346 30.7571 22.4401 30.4038 22.4472C30.0149 22.4543 29.5706 22.2471 29.0656 21.847C26.5891 19.884 25.3829 16.9761 24.1322 13.9627C22.2052 9.31505 20.1782 4.43156 13.5461 1.8505H13.5479Z" fill="white"/>
<path d="M291.558 159.653C291.349 159.321 290.909 159.221 290.577 159.43C290.245 159.639 290.145 160.08 290.354 160.412C290.62 160.834 290.812 161.377 290.923 161.996C290.306 161.886 289.761 161.691 289.34 161.427C289.008 161.218 288.568 161.318 288.359 161.65C288.15 161.982 288.25 162.423 288.582 162.632C289.24 163.047 290.088 163.329 291.03 163.456C291.007 164.487 290.786 165.592 290.331 166.63C289.79 167.862 288.919 168.999 287.661 169.79C286.669 170.415 285.429 170.831 283.909 170.922C282.501 170.845 281.16 170.638 279.985 170.258C278.007 169.615 276.52 168.47 276.078 166.596C276.015 166.328 275.971 166.046 275.949 165.749C275.873 164.688 276.301 163.577 277.216 162.698C278.067 161.88 279.334 161.259 281.01 161.041C281.399 160.991 281.675 160.635 281.625 160.246C281.609 160.123 281.563 160.012 281.495 159.917C280.093 157.844 279.696 155.891 280.019 154.337C280.194 153.492 280.587 152.765 281.143 152.206C281.7 151.649 282.426 151.256 283.272 151.081C284.828 150.758 286.785 151.156 288.864 152.572C289.189 152.792 289.631 152.708 289.851 152.383C289.915 152.287 289.954 152.181 289.968 152.074C290.186 150.399 290.805 149.129 291.624 148.276C292.502 147.36 293.612 146.931 294.672 147.008C294.968 147.03 295.25 147.073 295.517 147.137C297.389 147.58 298.533 149.07 299.175 151.049C299.555 152.224 299.762 153.567 299.839 154.977C299.748 156.498 299.332 157.74 298.708 158.733C297.916 159.992 296.783 160.864 295.551 161.405C294.515 161.861 293.412 162.082 292.381 162.105C292.254 161.162 291.972 160.314 291.558 159.655V159.653ZM291.637 167.198C292.161 165.999 292.422 164.722 292.454 163.527C293.648 163.495 294.922 163.234 296.121 162.709C297.469 162.116 298.724 161.187 299.661 159.867C299.495 161.312 299.243 162.702 298.954 163.927C298.444 166.085 298.205 167.834 298.16 169.238C296.758 169.283 295.013 169.522 292.855 170.033C291.63 170.322 290.243 170.574 288.8 170.74C290.118 169.802 291.046 168.547 291.639 167.196L291.637 167.198ZM283.861 172.348L283.886 172.349C285.06 172.412 286.266 172.389 287.458 172.303C289.494 172.157 291.485 171.826 293.177 171.426C295.286 170.926 296.923 170.676 298.18 170.601C298.354 173.044 299.27 174.082 300.244 174.313C301.063 174.507 301.909 174.166 302.494 173.58C303.079 172.994 303.418 172.148 303.226 171.328C302.995 170.352 301.957 169.436 299.518 169.261C299.593 168.004 299.843 166.364 300.342 164.253C300.742 162.559 301.072 160.564 301.218 158.528C301.304 157.334 301.327 156.127 301.265 154.952L301.263 154.927C301.181 153.392 300.952 151.917 300.531 150.613C299.741 148.171 298.28 146.322 295.842 145.745C295.505 145.665 295.15 145.611 294.773 145.585C293.303 145.479 291.783 146.054 290.6 147.289C289.774 148.15 289.112 149.334 288.755 150.829C286.655 149.643 284.653 149.339 282.985 149.688C281.859 149.922 280.888 150.449 280.137 151.199C279.388 151.949 278.861 152.922 278.628 154.05C278.282 155.72 278.585 157.726 279.768 159.826C278.274 160.183 277.091 160.846 276.231 161.673C274.998 162.857 274.424 164.379 274.529 165.851C274.556 166.228 274.611 166.584 274.69 166.921C275.266 169.359 277.113 170.822 279.552 171.615C280.854 172.039 282.328 172.266 283.861 172.348ZM245.649 197.494C245.257 197.494 244.939 197.812 244.939 198.205C244.939 198.598 245.257 198.916 245.649 198.916L317.098 198.907C317.596 198.945 318.094 198.97 318.59 198.98C318.709 198.982 318.822 198.955 318.92 198.905H323.381C324.344 198.964 325.359 198.996 326.432 199C326.56 199 326.681 198.966 326.785 198.905H327.29C327.682 198.905 328 198.587 328 198.194L327.8 116.671C327.8 116.278 327.483 115.96 327.09 115.96C326.697 115.96 326.38 116.278 326.38 116.671L326.394 122.255C326.364 122.185 326.332 122.114 326.296 122.044C325.172 119.766 323.316 118.425 321.343 118.027C320.213 117.798 319.052 117.878 317.967 118.266C317.607 118.395 317.255 118.557 316.916 118.755L316.873 105.732C316.873 105.339 316.556 105.021 316.163 105.021C315.771 105.021 315.453 105.339 315.453 105.732L315.499 119.861C315.35 120.013 315.205 120.176 315.064 120.345C313.46 122.305 312.586 125.445 313.335 129.746C313.401 130.134 313.769 130.396 314.158 130.33C314.545 130.264 314.807 129.896 314.741 129.507C314.07 125.659 314.8 122.916 316.163 121.249C316.809 120.461 317.6 119.915 318.449 119.611C319.295 119.309 320.196 119.247 321.066 119.422C322.628 119.738 324.107 120.822 325.022 122.674C325.68 124.009 325.188 125.468 324.251 126.488C323.818 126.961 323.291 127.338 322.742 127.567C322.226 127.781 321.694 127.862 321.209 127.758C320.385 127.581 319.648 126.835 319.295 125.254C319.211 124.87 318.831 124.627 318.447 124.713C318.063 124.797 317.821 125.177 317.906 125.561C318.404 127.788 319.571 128.867 320.915 129.155C321.694 129.321 322.515 129.207 323.288 128.885C324.026 128.578 324.728 128.078 325.299 127.454C325.764 126.947 326.148 126.354 326.403 125.715L326.539 180.986C325.522 177.68 324.025 174.563 322.237 171.933C320.916 169.811 319.637 167.33 318.691 164.888C317.81 162.609 317.219 160.373 317.166 158.517C317.121 157 317.348 155.334 318.044 153.464C318.636 151.874 319.564 150.134 320.952 148.214C322.067 146.81 322.999 145.383 323.625 144.216C323.757 144.011 323.78 143.745 323.664 143.511C322.906 141.989 321.634 139.992 320.09 138.157C318.679 136.48 317.037 134.935 315.346 133.999C313.539 132.999 311.665 132.676 309.913 133.549C309.553 133.729 309.194 133.965 308.841 134.264C307.895 135.062 307.319 136.293 307.328 137.72C307.335 138.938 307.77 140.297 308.771 141.633C309.007 141.948 309.453 142.012 309.767 141.776C310.081 141.541 310.145 141.094 309.909 140.78C309.105 139.706 308.757 138.645 308.751 137.715C308.744 136.723 309.128 135.882 309.758 135.351C310.011 135.137 310.277 134.964 310.552 134.826C311.822 134.192 313.248 134.465 314.663 135.248C316.194 136.094 317.699 137.518 319.006 139.072C320.356 140.678 321.489 142.419 322.223 143.82C321.814 144.549 321.289 145.372 320.677 146.221C320.395 146.58 320.126 146.935 319.873 147.283C319.557 147.682 319.223 148.08 318.877 148.469C317.525 149.991 315.979 151.376 314.431 152.178C312.994 152.922 311.56 153.156 310.309 152.488C310.05 152.351 309.792 152.169 309.533 151.938C308.917 151.39 308.557 150.54 308.589 149.55C308.619 148.619 308.998 147.567 309.831 146.515C310.074 146.206 310.022 145.76 309.713 145.517C309.404 145.274 308.958 145.326 308.716 145.635C307.679 146.944 307.208 148.291 307.167 149.507C307.119 150.936 307.661 152.183 308.584 153.006C308.919 153.305 309.271 153.549 309.638 153.746C311.367 154.669 313.248 154.396 315.082 153.446C315.739 153.106 316.388 152.678 317.021 152.188C316.909 152.451 316.807 152.71 316.711 152.967C315.944 155.028 315.694 156.874 315.744 158.556C315.803 160.589 316.427 162.986 317.364 165.403C317.603 166.019 317.862 166.637 318.137 167.252C317.328 166.557 316.493 165.964 315.644 165.487C314.033 164.581 312.363 164.094 310.698 164.131C308.819 164.174 306.974 164.881 305.263 166.405C304.524 167.062 304.166 167.77 304.152 168.541C304.137 169.277 304.451 170.018 305.058 170.785C307.253 173.561 310.322 174.838 313.503 176.16C319.791 178.773 326.539 181.579 326.578 197.432V197.485H323.466C310.227 196.651 307.62 190.369 305.181 184.49C303.861 181.306 302.585 178.233 299.812 176.036C299.047 175.429 298.306 175.115 297.571 175.129C296.8 175.143 296.094 175.502 295.437 176.242C293.915 177.955 293.209 179.8 293.166 181.683C293.128 183.349 293.615 185.021 294.52 186.634C295.004 187.497 295.607 188.343 296.311 189.163C295.683 188.881 295.052 188.615 294.424 188.372C292.01 187.436 289.615 186.809 287.585 186.75C285.904 186.702 284.061 186.952 282.002 187.718C281.734 187.818 281.465 187.925 281.19 188.043C281.652 187.436 282.057 186.813 282.382 186.186C283.331 184.349 283.604 182.467 282.681 180.736C282.485 180.37 282.241 180.016 281.943 179.68C281.122 178.757 279.875 178.214 278.447 178.262C277.232 178.303 275.887 178.775 274.579 179.812C274.27 180.055 274.219 180.504 274.461 180.811C274.704 181.12 275.152 181.172 275.459 180.929C276.51 180.095 277.561 179.718 278.49 179.686C279.477 179.652 280.328 180.014 280.876 180.63C281.104 180.888 281.286 181.147 281.425 181.407C282.093 182.66 281.859 184.096 281.115 185.534C280.314 187.084 278.931 188.631 277.411 189.985C277.129 190.237 276.842 190.481 276.553 190.717C276.119 191.028 275.678 191.36 275.227 191.716C275.189 191.746 275.154 191.78 275.123 191.816C274.29 192.416 273.482 192.93 272.766 193.334C271.367 192.6 269.628 191.464 268.024 190.114C266.471 188.804 265.049 187.297 264.204 185.766C263.422 184.349 263.149 182.922 263.783 181.65C263.92 181.375 264.093 181.109 264.307 180.855C264.837 180.225 265.677 179.843 266.668 179.848C267.597 179.853 268.657 180.204 269.73 181.007C270.044 181.243 270.49 181.179 270.725 180.864C270.961 180.55 270.896 180.103 270.582 179.868C269.246 178.866 267.888 178.432 266.673 178.423C265.247 178.414 264.016 178.991 263.221 179.937C262.923 180.291 262.687 180.65 262.507 181.011C261.633 182.765 261.957 184.639 262.956 186.45C263.891 188.145 265.435 189.788 267.11 191.2C268.943 192.745 270.937 194.018 272.458 194.777C272.691 194.893 272.957 194.87 273.162 194.738C274.413 194.065 275.966 193.039 277.466 191.812C279.3 190.508 280.967 189.624 282.498 189.052C284.366 188.356 286.031 188.129 287.545 188.174C289.401 188.227 291.633 188.817 293.91 189.701C296.588 190.739 299.309 192.18 301.555 193.636C301.58 193.652 301.607 193.666 301.632 193.681C304.064 195.244 306.873 196.558 309.834 197.489L254.736 197.494C255.354 197.239 255.925 196.864 256.417 196.412C257.04 195.84 257.539 195.138 257.846 194.399C258.168 193.625 258.282 192.802 258.116 192.023C257.83 190.678 256.751 189.512 254.526 189.011C254.142 188.927 253.762 189.169 253.678 189.553C253.594 189.937 253.835 190.317 254.219 190.401C255.798 190.755 256.546 191.492 256.72 192.318C256.824 192.802 256.744 193.334 256.53 193.852C256.301 194.402 255.925 194.927 255.452 195.363C254.431 196.301 252.974 196.794 251.642 196.135C249.792 195.22 248.709 193.74 248.393 192.175C248.217 191.303 248.281 190.401 248.582 189.554C248.886 188.704 249.43 187.913 250.219 187.266C251.882 185.902 254.622 185.171 258.467 185.843C258.854 185.909 259.224 185.648 259.29 185.259C259.356 184.871 259.095 184.501 258.706 184.435C254.408 183.685 251.273 184.558 249.316 186.166C249.146 186.305 248.984 186.452 248.832 186.602L234.719 186.555C234.326 186.555 234.009 186.873 234.009 187.266C234.009 187.659 234.326 187.977 234.719 187.977L247.728 188.02C247.532 188.359 247.369 188.711 247.239 189.072C246.852 190.158 246.771 191.321 247 192.452C247.399 194.427 248.738 196.285 251.013 197.41C251.071 197.439 251.13 197.467 251.191 197.494H245.646H245.649ZM241.276 192.3C241.668 192.3 241.986 191.982 241.986 191.589C241.986 191.196 241.668 190.878 241.276 190.878H227.71C227.318 190.878 227 191.196 227 191.589C227 191.982 227.318 192.3 227.71 192.3H241.276ZM300.569 172.921C300.048 172.798 299.589 172.142 299.505 170.586C301.059 170.67 301.714 171.129 301.837 171.651C301.909 171.957 301.748 172.305 301.486 172.569C301.222 172.834 300.874 172.994 300.569 172.921ZM319.769 112.295C319.769 112.689 320.089 113.009 320.483 113.009C320.877 113.009 321.197 112.689 321.197 112.295V98.714C321.197 98.3192 320.877 97.9995 320.483 97.9995C320.089 97.9995 319.769 98.3192 319.769 98.714V112.295ZM321.057 172.732C321.182 172.932 321.307 173.128 321.432 173.321C321.459 173.36 321.487 173.398 321.52 173.43C323.725 176.876 325.407 181.106 326.15 185.439C323.571 178.801 318.693 176.772 314.051 174.841C311.041 173.589 308.134 172.382 306.175 169.902C305.775 169.397 305.568 168.952 305.575 168.563C305.583 168.209 305.788 167.848 306.212 167.47C307.656 166.183 309.185 165.589 310.727 165.553C312.124 165.521 313.551 165.946 314.948 166.73C316.381 167.536 317.78 168.72 319.082 170.185C319.773 170.962 320.433 171.814 321.057 172.73V172.732ZM314.452 197.149C308.637 196.151 303.011 193.454 299.216 190.074C297.753 188.77 296.57 187.372 295.766 185.936C294.98 184.537 294.558 183.108 294.59 181.709C294.625 180.168 295.22 178.635 296.504 177.19C296.882 176.765 297.243 176.56 297.596 176.552C297.985 176.545 298.429 176.753 298.934 177.153C301.411 179.116 302.617 182.024 303.868 185.037C305.795 189.685 307.822 194.568 314.454 197.149H314.452Z" fill="white"/>
</svg>
